<svg xmlns="http://www.w3.org/2000/svg" viewBox="0 0 1100 750">
  <defs>
    <style>
      .title { font: bold 24px sans-serif; fill: #2c3e50; }
      .subtitle { font: bold 16px sans-serif; fill: #34495e; }
      .text { font: 13px sans-serif; fill: #555; }
      .small-text { font: 11px sans-serif; fill: #666; }
      .white-text { fill: white; font-weight: bold; }
    </style>
  </defs>
  
  <text x="550" y="40" text-anchor="middle" class="title">Microservices Architecture</text>
  <text x="550" y="65" text-anchor="middle" class="text">Small independent services communicate through APIs</text>
  
  <rect x="450" y="100" width="200" height="50" rx="5" fill="#ecf0f1" stroke="#95a5a6" stroke-width="2"/>
  <text x="550" y="130" text-anchor="middle" class="text">Clients</text>
  
  <rect x="400" y="180" width="300" height="60" rx="5" fill="#95a5a6" stroke="#7f8c8d" stroke-width="3"/>
  <text x="550" y="205" text-anchor="middle" class="subtitle white-text">API Gateway</text>
  <text x="550" y="225" text-anchor="middle" class="small-text white-text">Routing - Auth - Rate Limiting</text>
  
  <rect x="80" y="300" width="180" height="110" rx="8" fill="#3498db" stroke="#2980b9" stroke-width="2"/>
  <text x="170" y="330" text-anchor="middle" class="subtitle white-text">User Service</text>
  <text x="170" y="355" text-anchor="middle" class="small-text white-text">Node.js</text>
  <text x="170" y="375" text-anchor="middle" class="small-text white-text">Registration</text>
  <text x="170" y="395" text-anchor="middle" class="small-text white-text">Authentication</text>
  <rect x="100" y="425" width="140" height="25" rx="3" fill="#e67e22"/>
  <text x="170" y="442" text-anchor="middle" class="small-text white-text">User DB</text>
  
  <rect x="290" y="300" width="180" height="110" rx="8" fill="#e74c3c" stroke="#c0392b" stroke-width="2"/>
  <text x="380" y="330" text-anchor="middle" class="subtitle white-text">Product Service</text>
  <text x="380" y="355" text-anchor="middle" class="small-text white-text">Java Spring</text>
  <text x="380" y="375" text-anchor="middle" class="small-text white-text">Catalog</text>
  <text x="380" y="395" text-anchor="middle" class="small-text white-text">Inventory</text>
  <rect x="310" y="425" width="140" height="25" rx="3" fill="#e67e22"/>
  <text x="380" y="442" text-anchor="middle" class="small-text white-text">Product DB</text>
  
  <rect x="500" y="300" width="180" height="110" rx="8" fill="#27ae60" stroke="#229954" stroke-width="2"/>
  <text x="590" y="330" text-anchor="middle" class="subtitle white-text">Order Service</text>
  <text x="590" y="355" text-anchor="middle" class="small-text white-text">Python</text>
  <text x="590" y="375" text-anchor="middle" class="small-text white-text">Cart</text>
  <text x="590" y="395" text-anchor="middle" class="small-text white-text">Checkout</text>
  <rect x="520" y="425" width="140" height="25" rx="3" fill="#e67e22"/>
  <text x="590" y="442" text-anchor="middle" class="small-text white-text">Order DB</text>
  
  <rect x="710" y="300" width="180" height="110" rx="8" fill="#9b59b6" stroke="#8e44ad" stroke-width="2"/>
  <text x="800" y="330" text-anchor="middle" class="subtitle white-text">Payment Service</text>
  <text x="800" y="355" text-anchor="middle" class="small-text white-text">Go</text>
  <text x="800" y="375" text-anchor="middle" class="small-text white-text">Payments</text>
  <text x="800" y="395" text-anchor="middle" class="small-text white-text">Stripe</text>
  <rect x="730" y="425" width="140" height="25" rx="3" fill="#e67e22"/>
  <text x="800" y="442" text-anchor="middle" class="small-text white-text">Payment DB</text>
  
  <rect x="920" y="300" width="150" height="110" rx="8" fill="#f39c12" stroke="#d68910" stroke-width="2"/>
  <text x="995" y="330" text-anchor="middle" class="small-text white-text">Notification</text>
  <text x="995" y="350" text-anchor="middle" class="small-text white-text">Ruby</text>
  <text x="995" y="370" text-anchor="middle" class="small-text white-text">Email</text>
  <text x="995" y="390" text-anchor="middle" class="small-text white-text">SMS</text>
  <rect x="940" y="425" width="110" height="25" rx="3" fill="#e67e22"/>
  <text x="995" y="442" text-anchor="middle" class="small-text white-text">Queue</text>
  
  <rect x="250" y="490" width="600" height="45" rx="5" fill="#16a085" stroke="#138d75" stroke-width="2"/>
  <text x="550" y="518" text-anchor="middle" class="text white-text">Message Queue (Kafka / RabbitMQ)</text>
  
  <rect x="50" y="570" width="230" height="140" rx="8" fill="#34495e" stroke="#2c3e50" stroke-width="2"/>
  <text x="165" y="595" text-anchor="middle" class="subtitle white-text">Infrastructure</text>
  <text x="165" y="625" text-anchor="middle" class="small-text white-text">Service Discovery</text>
  <text x="165" y="650" text-anchor="middle" class="small-text white-text">Config Server</text>
  <text x="165" y="675" text-anchor="middle" class="small-text white-text">Load Balancer</text>
  <text x="165" y="700" text-anchor="middle" class="small-text white-text">Kubernetes</text>
  
  <rect x="310" y="570" width="230" height="140" rx="8" fill="#27ae60" stroke="#229954" stroke-width="2"/>
  <text x="425" y="595" text-anchor="middle" class="subtitle white-text">Benefits</text>
  <text x="330" y="625" class="small-text white-text">Independent deployment</text>
  <text x="330" y="650" class="small-text white-text">Technology diversity</text>
  <text x="330" y="675" class="small-text white-text">Fault isolation</text>
  <text x="330" y="700" class="small-text white-text">Team autonomy</text>
  
  <rect x="570" y="570" width="230" height="140" rx="8" fill="#c0392b" stroke="#a93226" stroke-width="2"/>
  <text x="685" y="595" text-anchor="middle" class="subtitle white-text">Monitoring</text>
  <text x="590" y="625" class="small-text white-text">Prometheus</text>
  <text x="590" y="650" class="small-text white-text">ELK Stack</text>
  <text x="590" y="675" class="small-text white-text">Grafana</text>
  <text x="590" y="700" class="small-text white-text">Tracing</text>
  
  <rect x="830" y="570" width="230" height="140" rx="8" fill="#e67e22" stroke="#d35400" stroke-width="2"/>
  <text x="945" y="595" text-anchor="middle" class="subtitle white-text">Challenges</text>
  <text x="850" y="625" class="small-text white-text">Complex infrastructure</text>
  <text x="850" y="650" class="small-text white-text">Data consistency</text>
  <text x="850" y="675" class="small-text white-text">Network latency</text>
  <text x="850" y="700" class="small-text white-text">Testing complexity</text>
</svg>
